<?xml version="1.0" encoding="UTF-8"?>
<svg width="300px" height="300px" viewBox="0 0 300 300" version="1.1" xmlns="http://www.w3.org/2000/svg" xmlns:xlink="http://www.w3.org/1999/xlink">
    <!-- Generator: Sketch 50.2 (55047) - http://www.bohemiancoding.com/sketch -->
    <title>icon</title>
    <desc>Created with Sketch.</desc>
    <defs></defs>
    <g id="Page-1" stroke="none" stroke-width="1" fill="none" fill-rule="evenodd">
        <rect id="Square" fill="#FB48C4" x="0" y="0" width="300" height="300"></rect>
        <path d="M92.7688689,74.3396628 C91.8551083,78.182583 90.03375,88.3285743 99.5420605,96.8552392 C106.185403,102.812813 114.550359,108.076278 125.028111,110.560622 C132.780873,112.398891 141.312942,113.009879 149.32689,110.488254 C154.756041,108.779936 157.852655,105.188853 164.348226,100.630956 C175.200011,94.569818 182.26577,101.254889 187.392081,109.928624 C198.028584,127.925845 196.746032,162.485033 196.694957,180.704453 C196.906909,198.66949 193.273472,229.260618 193.705169,234.520616 C194.136937,239.780544 195.738267,246 200.318972,246 C204.899662,246 206.501042,239.780544 206.932781,234.520616 C207.364528,229.260618 205.640198,198.590614 203.942987,180.704453 C201.478404,137.453916 196.867026,117.982314 191.70912,108.034965 C184.531789,94.1928406 177.723177,96.2852811 168.543492,82.9867992 C164.793028,75.9995236 163.643442,71.4016582 159.562795,67.4384787 C153.53937,61.5885021 145.642945,58.3042215 137.890183,56.4660233 C127.412432,53.981679 117.570891,54.9283317 108.954738,57.2677281 C96.622971,60.6159583 93.6826296,70.4966718 92.7688689,74.3396628 Z" id="Spoon" fill="#FFFFFF"></path>
    </g>
</svg>