<?xml version="1.0" encoding="UTF-8"?>
<svg width="300px" height="300px" viewBox="0 0 300 300" version="1.1" xmlns="http://www.w3.org/2000/svg" xmlns:xlink="http://www.w3.org/1999/xlink">
    <!-- Generator: Sketch 51.2 (57519) - http://www.bohemiancoding.com/sketch -->
    <title>star</title>
    <desc>Created with Sketch.</desc>
    <defs></defs>
    <g id="Page-1" stroke="none" stroke-width="1" fill="none" fill-rule="evenodd">
        <g id="star" fill="#FB48C4" fill-rule="nonzero">
            <path d="M241.772274,254.278303 C238.371949,196.820916 232.144531,170.739729 225.190121,157.32771 C215.381237,138.410402 206.076264,141.270031 193.530868,123.095691 C188.405305,113.546547 186.834226,107.262885 181.257419,101.846614 C173.025519,93.8517572 162.233888,89.3633027 151.638593,86.8511333 C137.319198,83.4559099 123.86928,84.7496506 112.094033,87.9467814 C95.2408523,92.5226325 91.2224414,106.026087 89.9736525,111.278102 C88.7248636,116.53002 86.2357084,130.396016 99.2302193,142.048963 C108.309328,150.190867 119.741277,157.38417 134.060672,160.779393 C144.655966,163.291659 156.3163,164.126664 167.268543,160.680492 C174.68828,158.345822 178.92026,153.438077 187.797417,147.209037 C202.627984,138.925597 212.284388,148.061735 219.29025,159.915675 C233.205104,183.459946 232.19391,227.744516 232.020781,253.328639 L218.582561,252.019866 L207.766079,288.216713 L174.429123,270.444392 L150.584063,299.74663 L126.585905,270.569645 L93.3424614,288.516274 L82.3366025,252.376558 L44.755788,256.235365 L48.4177709,218.634861 L12.2209238,207.81838 L29.9932447,174.481424 L0.69100692,150.636364 L29.8679912,126.638206 L11.9213627,93.3947619 L48.061079,82.388903 L44.2022714,44.8080885 L81.8027753,48.4700714 L92.6192571,12.2732243 L125.956213,30.0455453 L149.801273,0.743307455 L173.799431,29.9202917 L207.042875,11.9736633 L218.048734,48.1133795 L255.629548,44.2545719 L251.967565,81.8550759 L288.164412,92.6715576 L270.392091,126.008513 L299.694329,149.853573 L270.517345,173.851732 L288.463973,207.095175 L252.324257,218.101034 L256.183065,255.681849 L241.772277,254.278355 Z" id="Combined-Shape"></path>
        </g>
    </g>
</svg>