<svg xmlns="http://www.w3.org/2000/svg" width="100" height="100" viewBox="0 0 100 100">
    <circle fill="#ae1f00" cx="50" cy="50" r="50"/>
    <path fill="#fff" d="M44.201 18.477c-3.255 4.3-5.079 11.376-4.124 16.005.552 2.666 1.752 4.729 4.635 7.978 1.689 1.904 2.168 2.556 2.462 3.347.266.699.23 1.551-.35 9.383-.634 8.564-.812 12.177-.799 16.21.024 6.678.472 10.479 1.458 12.311a2.33 2.33 0 0 0 .609.772c.534.466.932.586 2.048.579 1.162.002 1.533-.119 2.096-.685.448-.451.628-.779.923-1.669.681-2.039.97-5.207.991-10.741.013-4.617-.156-7.77-.985-18.364-.348-4.477-.482-6.728-.437-7.163.109-.954.593-1.682 2.728-4.095 1.797-2.037 2.651-3.229 3.384-4.707a12.01 12.01 0 0 0 1.336-5.555c.069-4.784-1.875-10.545-4.722-13.998-1.486-1.803-3.155-2.874-4.837-3.106-1.352-.191-2.94.298-4.318 1.339a15.55 15.55 0 0 0-2.097 2.162v-.001z"/>
    <g transform="matrix(.2973 0 0 .9012 35.1351 6.29012)">
        <clipPath id="A">
            <path d="M30.494 13.522c-10.95 4.772-17.083 12.623-13.872 17.759 1.858 2.959 5.892 5.248 15.589 8.853 5.683 2.112 7.293 2.836 8.282 3.714.893.775.774 1.721-1.178 10.411-2.133 9.503-2.73 13.512-2.686 17.987.08 7.41 1.588 11.628 4.903 13.661.61.385 1.064.564 2.047.856 1.795.518 3.136.651 6.89.643 3.91.002 5.156-.133 7.05-.761 1.509-.5 2.113-.864 3.104-1.852 2.29-2.262 3.264-5.778 3.332-11.918.044-5.124-.524-8.622-3.312-20.377-1.171-4.968-1.623-7.465-1.47-7.948.367-1.06 1.997-1.867 9.175-4.544 6.045-2.26 8.918-3.583 11.383-5.224 3.07-2.037 4.398-3.847 4.493-6.164.231-5.308-6.307-11.7-15.883-15.532-4.998-2.001-10.613-3.189-16.269-3.447-4.549-.212-9.889.331-14.523 1.486-1.71.432-5.457 1.694-7.055 2.399v-.002z"/>
        </clipPath>
        <g clip-path="url(#A)">
            <path fill="#ffe9b3" d="M50 8h37v81H50z"/>
        </g>
    </g>
</svg>
