<?xml version="1.0" encoding="UTF-8"?>
<svg width="115px" height="191px" viewBox="0 0 115 191" version="1.1" xmlns="http://www.w3.org/2000/svg" xmlns:xlink="http://www.w3.org/1999/xlink">
    <!-- Generator: Sketch 50.2 (55047) - http://www.bohemiancoding.com/sketch -->
    <title>Spoon Mask</title>
    <desc>Created with Sketch.</desc>
    <defs></defs>
    <g id="Page-1" stroke="none" stroke-width="1" fill="none" fill-rule="evenodd">
        <path d="M0.768868935,19.3396628 C-0.14489173,23.182583 -1.96625001,33.3285743 7.54206054,41.8552392 C14.1854031,47.8128125 22.5503595,53.0762776 33.0281107,55.5606219 C40.780873,57.3988909 49.3129423,58.0098787 57.3268904,55.4882541 C62.7560413,53.7799358 65.852655,50.1888527 72.348226,45.6309557 C83.2000105,39.569818 90.2657699,46.2548891 95.3920812,54.928624 C106.028584,72.9258448 104.746032,107.485033 104.694957,125.704453 C104.906909,143.66949 101.273472,174.260618 101.705169,179.520616 C102.136937,184.780544 103.738267,191 108.318972,191 C112.899662,191 114.501042,184.780544 114.932781,179.520616 C115.364528,174.260618 113.640198,143.590614 111.942987,125.704453 C109.478404,82.4539157 104.867026,62.9823135 99.7091204,53.0349651 C92.5317886,39.1928406 85.7231772,41.2852811 76.5434918,27.9867992 C72.7930281,20.9995236 71.6434423,16.4016582 67.562795,12.4384787 C61.5393703,6.58850206 53.6429451,3.30422151 45.8901828,1.46602326 C35.4124317,-1.01832096 25.5708914,-0.0716683108 16.9547376,2.26772812 C4.62297102,5.61595831 1.6826296,15.4966718 0.768868935,19.3396628 Z" id="Spoon-Mask" fill="#FB48C4"></path>
    </g>
</svg>