<svg xmlns="http://www.w3.org/2000/svg" width="30" height="100" viewBox="0 0 30 100">
    <path d="M6.794 6.47C2.285 12.426-.24 22.226 1.082 28.637c.765 3.693 2.426 6.55 6.419 11.05 2.34 2.637 3.003 3.54 3.41 4.636.368.968.319 2.148-.485 12.996-.878 11.861-1.124 16.865-1.106 22.452.033 9.249.654 14.514 2.019 17.051.251.481.438.705.843 1.069.739.646 1.291.812 2.837.802 1.61.003 2.123-.165 2.903-.949.621-.624.87-1.079 1.278-2.312.943-2.824 1.344-7.212 1.372-14.877.018-6.395-.216-10.762-1.364-25.435-.482-6.201-.668-9.318-.605-9.921.151-1.322.822-2.33 3.778-5.672 2.489-2.821 3.672-4.472 4.687-6.52 1.264-2.543 1.811-4.802 1.85-7.694.095-6.626-2.597-14.605-6.54-19.388-2.058-2.497-4.37-3.98-6.699-4.302-1.873-.265-4.072.413-5.98 1.854-.704.54-2.247 2.115-2.905 2.995z"/>
</svg>
