<?xml version="1.0" encoding="UTF-8"?>
<svg width="158px" height="261px" viewBox="0 0 158 261" version="1.1" xmlns="http://www.w3.org/2000/svg" xmlns:xlink="http://www.w3.org/1999/xlink">
    <!-- Generator: Sketch 51.3 (57544) - http://www.bohemiancoding.com/sketch -->
    <title>Spoon</title>
    <desc>Created with Sketch.</desc>
    <defs></defs>
    <g id="Page-1" stroke="none" stroke-width="1" fill="none" fill-rule="evenodd">
        <path d="M1.05077297,26.430506 C-0.198015952,31.6824241 -2.68717109,45.54842 10.3073398,57.2013671 C19.3864487,65.3432711 30.8183973,72.5365737 45.137792,75.931797 C55.7330869,78.4440631 67.39342,79.2790682 78.3456638,75.8328957 C85.7654005,73.4982265 89.9973805,68.5904809 98.8745378,62.3614415 C113.705104,54.0780014 123.361508,63.2141386 130.36737,75.0680786 C144.903722,99.6639393 143.150926,146.894175 143.081124,171.793704 C143.370788,196.34558 138.40516,238.152875 138.995137,245.34144 C139.585212,252.529909 141.773666,261.029714 148.033875,261.029714 C154.294065,261.029714 156.482587,252.529909 157.072623,245.34144 C157.662668,238.152875 155.306118,196.237785 152.986627,171.793704 C149.618411,112.685456 143.316282,86.074635 136.267242,72.4801139 C126.458358,53.5628061 117.153384,56.4224351 104.607988,38.2480952 C99.4824257,28.698951 97.9113468,22.4152887 92.3345395,16.9990185 C84.1026398,9.0041613 73.3110085,4.51570678 62.7157136,2.00353734 C48.3963189,-1.39168601 34.9464003,-0.0979453333 23.1711534,3.09918545 C6.31797278,7.6750366 2.2995619,21.1784912 1.05077297,26.430506 Z" id="Spoon" fill="#FB48C4" fill-rule="nonzero"></path>
    </g>
</svg>